<mxfile host="Electron" agent="Mozilla/5.0 (Windows NT 10.0; Win64; x64) AppleWebKit/537.36 (KHTML, like Gecko) draw.io/27.0.2 Chrome/134.0.6998.205 Electron/35.3.0 Safari/537.36" version="27.0.2">
  <diagram name="Page-1" id="vVYRpVXnNLdEuHQDFxP9">
    <mxGraphModel dx="1641" dy="1296" grid="1" gridSize="11" guides="1" tooltips="1" connect="1" arrows="1" fold="1" page="1" pageScale="1" pageWidth="850" pageHeight="1100" math="0" shadow="0">
      <root>
        <mxCell id="0" />
        <mxCell id="1" parent="0" />
        <mxCell id="pFz-RH5sDnhGAiZMFnmu-20" value="Dashboard" style="shape=image;verticalLabelPosition=bottom;labelBackgroundColor=default;verticalAlign=top;aspect=fixed;imageAspect=0;image=data:image/jpeg,/9j/4AAQSkZJRgABAQAAAQABAAD/2wCEAAkGBwgHBgkIBwgKCgkLDRYPDQwMDRsUFRAWIB0iIiAdHx8kKDQsJCYxJx8fLT0tMTU3Ojo6Iys/RD84QzQ5OjcBCgoKDQwNGg8PGjclHyU3Nzc3Nzc3Nzc3Nzc3Nzc3Nzc3Nzc3Nzc3Nzc3Nzc3Nzc3Nzc3Nzc3Nzc3Nzc3Nzc3N//AABEIAJQA3AMBEQACEQEDEQH/xAAbAAEAAgMBAQAAAAAAAAAAAAAAAQUCBAcDBv/EADgQAQABAgMCCA0FAQEAAAAAAAABAgMEBRFxsSEjMTJRU3PBBhIVFiIlMzQ1QVSRkhMkYnKhgRT/xAAaAQEAAgMBAAAAAAAAAAAAAAAAAQMCBAYF/8QALhEBAAECBAMGBwADAAAAAAAAAAECAwQRMTNRUnEFEhMUMpEVITRBU4GxImHx/9oADAMBAAIRAxEAPwDuIAAAAAAAAAAAAAPO9et2aJru100Ux86p0hhcuUW471c5R/tMUzVOUQ1PLGXfV2vyavxHC/kj3W+Bd5Tyxl31dr8j4jhfyR7nl7vKeWMu+rtfkfEcL+SPc8vd5Tyzl31dr8k/EML+SPc8vd5Xth8dhcTMxh79u5McsU1LbeJs3Zyt1RP7Y1Wq6PVDYherSAAAAAAAAAAAAAAAAAAACJ5ESPlvDC5VF6xa19DxZmY6XN9vV1RVTT9no4GIymXzsy5+Ho55omUiNQNQbGV3arWY4eq3OkzciJ2S28FVNOIoy4qr1MTbnN0WHcvCSAAAAAAAAAAAAAAAAAAACJ5EToPkvDH3ux/Sd7mu3tyjo9PAemXzzwW+AiQRqmB74D37D9pTvbGE+oo6sLvol0il3bwGQAAAAAAAAAAAAAAAAAAAInkROg+R8MvfLH9J3ua7e3KOj08B6ZfPS8Fvo1TAapyETIPbL5/f4ftad7Ywn1FHVhd26nS6XdPASAAAAAAAAAAAAAAAABKJGFVyijn1RG2WFVyin1TkmKZnRj/6LXWU/dj49vmhPcq4E4i11lH3Jv2uaDuVcHynhdrexdmbfpxFHLTwue7bqiu5T3Zejgs6aZzUP6Vzq6vs8Tuy3u9DznWOCTJKEiJB75f7/hu1p3r8J9RR1YXdup0yHdPASAAAAAAAAAAAAAAAACJ5AfMXrlV25VVXOvC4i9XVcrma5z/69WiIiPk8+BVlDJE6GUDHXTkA8aekFRm9NNN23VTGk1ROv+MKoX25aGrFYiZB75f7/hu1p3tjCfUUdWF3bqdOh3Ln0iQAAAAAAAAAAAAAAAGNfMq2BD5T5y4Wr1T+/wCvWjREyxSjUGMyhKNQVWdTxljZV3IlbbV8sVyNQe+Xz+/w3a072xhfqKOqu7t1On0u4eAyAAAAAAAAAAAAAAAABjXzKtiJ0HyUzwy4WrX3/r14YzLFKNQRMiUaoFVnPtLGyruJW21fMoWomSBsZd8Qw3a072xhd+jqwu7cuoUu3c+yAAAAAAAAAAAAAABj40dMMc44pyPGjpg70cUZIrmPEnhjkRNUcU5S+Sq1iZ4Pm4iuP8p/f9etGkMJ2MGSNQRMoSjVAqs5njLGyruI0WW2glagGxl0+sMN2tO9sYXfo6sLu3U6jS7Zz7IAAAAAAAAAAAAAGrjrlVu16M6TMtLG3JotfL7rbVOdSt1npl4k1TxbWUI8aelHekyR409Mo708TJjpHRDDKEoqoprjSYhExEwmJyVdfBMx0S8+rVsxoxmUJRMoFVnE8ZY2VdzKNFltoapWImQbGW/EcL2tO9fhd+jqru7cuqQ7Z4CQAAAAAAAAAAAAAaOZ8yja87tHbhdZ9SveLm2UaoSTKMxCJlKECpuT6dW159WrZjRjqhKNUCrzieMsbKu5lSstq+ZZrEag2ctn1jhe1p3r8Lv0dWF7bl1WHaueSJAAAAAAAAAAAAAaGZ8yja83tLbhdZ9SueJm2hGaUIBAjUSqLk+nVtl59WrZjRjMoSx1BV5xPGWNlXczp0WUNCZZM0aiWzls+scL2tO9sYXfo6q723Lq8O0c8kSAAAAAAAAAAAAA0M05lG15nae1C+x6pVrw20aoEaoShGYGaVPcn06trRnVsxowmWKUagrM459nZV3LKFlDQZs0ag2Msn1lhe2p3r8Lv0dVd3bl1ml2jnkiQAAAAAAAAAAAAFfmvMo2vL7U2oX2PVKteFm20aozEIzSaoAFNd59W1pVatmNGGrFMMZkSrM4njLOye5Za0lnS0NVrM1Bs5X8SwnbU71+F36Oqu9ty6zS7Nz8MgAAAAAAAAAAAAAV2bcyja8vtXahfY9Ss1eBm3DVAieRAgSaokU1yfTq2y06tWzGjDViljMgrM3njLOye5dZ0lnS0VrMmQbOVz6ywnbU71+G36OrC7t1Otw7JzyQAAAAAAAAAAAAAV2b+zt7Xldq7NPVfh/VKrc+3EaoSjUzEIzBGYpbs8ZVtlqTq2o0YzKEsZngQlWZvPp2dk9y6zpLKlozK9kiRLayv4nhO2p3r8Lv0dVd3bq6OuUuxc8yAAAAAAAAAAAAABXZx7Kj+zy+1aZqsfLivw85VKnVzmbdQjMNUZpQAgUl32te2WrVq2o0Y6oSxmRKszeeMs7J7l9nSUw0dVzImUpbeTW6rua4SmiJmf1aZ/1sYSiar1OXFVfmItzm65S69z7IAAAAAAAAAAAAAHjirFOItTRV90TETGUitnJ6vld4Gt5PDzrRDPxK4+55Hr608lh+SDxK+J5Hr648jhuSDxK+J5Hr648jhuSDxK+J5Hr648jhuSDxa+LynweomeGaZ/4xns/C/e3Hsy8e7xR5u2/4/ZHw/Cfjj2PHu8Tzdt/x+x8Pwn449jx7vF53PBjD3NPHpoq05NYZU4DDRpRHsnzF3mY+amE6q3+KfJYfkj2PM3eY808J1Vv8TyWH5I9jzF3mbmW5DhsDd/Ut0UxVHRSst2LVuc6KYhhVdrq+Uyt4XMEgAAAAAAAAAAAAAAAAAAAAAAAAAAAAAAAAAA//2Q==;fontStyle=1" vertex="1" parent="1">
          <mxGeometry x="682" y="473" width="88" height="59.2" as="geometry" />
        </mxCell>
        <mxCell id="pFz-RH5sDnhGAiZMFnmu-26" value="Alert Email" style="sketch=0;outlineConnect=0;fontColor=#232F3E;gradientColor=none;fillColor=#DD344C;strokeColor=none;dashed=0;verticalLabelPosition=bottom;verticalAlign=top;align=center;html=1;fontSize=12;fontStyle=1;aspect=fixed;shape=mxgraph.aws4.email;" vertex="1" parent="1">
          <mxGeometry x="682" y="349" width="78" height="69" as="geometry" />
        </mxCell>
        <mxCell id="pFz-RH5sDnhGAiZMFnmu-32" value="" style="endArrow=classic;html=1;rounded=0;exitX=1;exitY=0.5;exitDx=0;exitDy=0;entryX=0.091;entryY=0.492;entryDx=0;entryDy=0;entryPerimeter=0;" edge="1" parent="1" source="pFz-RH5sDnhGAiZMFnmu-33" target="pFz-RH5sDnhGAiZMFnmu-36">
          <mxGeometry width="50" height="50" relative="1" as="geometry">
            <mxPoint x="464" y="383.75" as="sourcePoint" />
            <mxPoint x="407" y="384" as="targetPoint" />
          </mxGeometry>
        </mxCell>
        <mxCell id="pFz-RH5sDnhGAiZMFnmu-33" value="Molding Press / Drilling Machine" style="shape=image;verticalLabelPosition=bottom;labelBackgroundColor=default;verticalAlign=top;aspect=fixed;imageAspect=0;image=data:image/png,iVBORw0KGgoAAAANSUhEUgAAAS0AAACnCAMAAABzYfrWAAABRFBMVEX///8AAADo6Oiqqqrl5eVOT0+ysrKcnJytra2Hh4e6urqYmJh6e3xaWloODg729vbNzc11dXX5+fkATYpfX1/Cw8MyMzPu7u7d3d0APnChoaEAABjV1dUARHoAOmkAAA2QkJABK0weHh4ASZEmJyg7OztGRkZFeKwAMFYBJ0UARJBnZ2eDg4MAS4cAACYATZUAMWlaX2UAACAAMV4AFitKSksAABIAHjxvkroOXZ7l7fQAI1UYGBgANV+ss7sRGiQAHFSrvM8AP3t9j6IAMHSLp8YAFUUADy3J09+Voa4zQFAAHkgjW5MmLDFZc5NOfq8RJjwAPIwAADIsTnIAETekutRMYnrJ0twADyUXQ2waN1QgLjs0YpJtamVJaYzD0uFsgp2FpMUAKnZjcoNeh7SBi5cAFVKcqLZHU1+FmK9ebX04UnEFDEdtAAAMOklEQVR4nO2b+1sTORfHMzO90Qsz7bSdobTQ0ou0pbZcFAWKUl9dFQQvKML6ouy6urr//+9vMpd2JslcCt1HfZ/z8VHoJM0k3yQnJycRIQAAAAAAAAAAAAAAAAAAAAAAAAAAAAAAAAAAAAAAAAAAAAAAAAAAAAAAAAAAAAAAAOAnR/7RFfh1qCLt7v6PrsSvg/hg++HBj67Er0Kyens4uv+ja/GroKFH/zkCyxUORUHo8c6PrsUvgSaXbz85M3+fwxbsx9bmJ0aMRCJisvTb6tLoqfm7WN54pkW4iLoi8lPMZDdB6TYB018rS6V4PF5KKJGcZx66zEn7KDTX99gqmZp4vScfxWSeHy71+kfk12i3sVgbHGaiLsjHZibTFJZfUCmTLPmW4CaTp/IKHjRacwUPIcpzRWfOVrXMzbZGFzlOoROyzq8V2LrEyHq3VvWSy6hT+XhUP7Fe/LK2VOl8dKXr2KhFhDJqvm+fe9m2crZIvbgVp6a0l1pmM3SmyFypwcnI5sPmw1OteSoh7fxaly29hZAUz0q8l9hoOXRyy/792cNK/5bd1Wljmsj4X3lNf/G+jSesLZfkLCHBaxd+d8GRR/ZVSxC61JQs8bMpM1OLWyERSdVSyXMumuQmU+HxK0M5vYrQ+us3kya82MBiVXp1c+qvLz8ap8RWPCVoThoXpJYgOLXV6aHKy3QztZK84ktIjyeS/mK5ODCUkwR5/XQ4OsJjSUmSmZg+JWJ13iKU6aL1jfauJZfoaZAMsnY/BKslxMd1kDzz8FpyPbXyvOKLOMFzNfFDrG1W1L418+S8dvawohKxULzU3agNlwZXJIHbQ05WIqHVEhJezZ8Qm5VaGr98P5Plo1USaZW6LZZOJsDHjiEW3oIvtocLFfUVXgziITQoh1bLqmvaJ0eCU9drqZXgl18NqQ82MeJL4qQaa1lcyKGdI0usyINlkvARi4Xbk+6+21yqqPV7CKXCSGDKlQuTs2l0hl+O0qzU8jAg8z4KOZ3HVER/eTg4E5Uq8Sx1BT8if6SoWH7wvr17hn8XtapQ0DL5yPlI7Z+IYiyMApgyLlEPlTMZNLfjnFZcRy2PichfdC3yDrItobbUe/W8i3E8zkSbwhZeDgcX3XxX2Gg/+T3bzWc/dE7+222GEoAQxQWFytj0boZJakZqea4jac4LOFTRuwH2tZBc0L+7EprE0arUBjuotNGurS6RSZl7jP+h3XdvSBXC5Yxk/NOrM1LLu+7h1MKO1HGH+FrJ3w4vJ48LczoRSxXWUGqxXdvcXRg8NVPCGS0TJZyVF4Q7AekzUkv0fgPPo+NzhX0NZQO77GN3HsVX0M7SSO0coNRdLNanHeyhGjujwOY7u6/JZG8VCoVY2tux9WBuNmr5rOX50GoR9NWFXv3EUithrOk72NFKltdPa6tYLVXtXLF1lJgZlETOcaLQa2LGfEE2SB6DvfHWakZq+Znc6YKiOz17j432hbbhT+y8RUIXfT9cWhj9oXYeE2+DskOyOS+b+W7ebBlxuh1y5Wm7ZamF9gKlyih4JytHUg1Xe2+klu8CzXOAKeQqlnT9T1Ouz2OxXm8PrVACUfx4MPr8tH+F9vEukRPvEObMvHrWnv0OuSIeanEiAS6KkyhNoUHFXK6tltula7qdljvBaunYh+ye7n4a12xPRjFhX9/cPDf30WUyN487V3iY7WM/4ivlcM81heYkRJNMig3NLRcdU7DVCpiKLdeuLYtH+CzUcsdM5iibr3HeQVDGlAvYLg0rnc/Wx5KgSHdP/9rfXBgdkc/Ju9/L+OdR51KXbpPQzarrBSvYgSmUx6Vh9VfMd47lilI1t9Xyd9oalBFJ8Dp+arXK7qdJykrw9guEdDZtkRWya2QX/Yg8WcsL66nmcrv25MtCpaf+sb7WwnPyNU5ae7T2YhEbe/x0KJAgnv2GotDNZyyizpnvFaKw1ArYlTOe9UyigdQXIlQlix5qOWqBK/a0bvoGSH6+fZEVL7YPvx2MemrnHtIX95XdzWMjUbvYPL8cqeqWYUTGcmXc5YlWdE/2ClQZC7XmEfOzaQbW+1pquf2WPaaE4EAEyfERiyXPadrv26s14Uw+3z14OiJilRdPn+1jt9RcKpUvB0jtb1nvtq035dQpghGpkT0dqpVoNMoPuTrwmhM3U0txP8wwI7wa6rUEUShhsZZIaEs+HxhiKYvb7YdkTo6IG6a/3/7w+f53ATv38SL+HDGrxDWNcrB/4Av/1OKmalELS5zZY/sFIihy8sUhEev+DtKOelgspNxuH37dH/TUOnbxI++326tq5W8sFioY67m4JzT426ubiiUEBMivqRb1lNjGFfZROCRZfjMyxMLNvX+PPDrb3T04G6nEaY1sbbcPD1Bl9PfkG0oVsd2Rm4FY/45atKdIZkWXky8MEezLyh/qhlhIt+bX2WBgiUVG1ublN/zpL4RiUZIo7hXT7NhSqjcXK+QOd0q1KGWMFZAO4IRVi8QiUO5kh4Rw9I131sOznto3PPzv26vDhQW8JKp4y5a8Y4hllE9fCIgJU++YWcL18XRq0dt7w5pQHhi/m5JeFPDfVHKrNrgsGB8Ljzo9/COVSF5sEhesX1+2drhErDh276oFdwEBcSoudONC7nA91WKi20Qt2sMzI/3UQ96WAaX8KG3UFir1D/FUKl4sxb+WUqWicHs9cYzNff+WsYmuWqtJk+y7si6Ctn9cdGbuMoNrqtNXJqiEVyZEd6NpG2kneupjsqpuxFLJb6bjE3uuXAx19LneP5LNzqhqDdHeMLpPY5hQYYsdOBSNCGJjgVRAYI0XfWKOPezFgd7JC1U2ID+vyZgcfZciRCDCjYide0OsNeEl6RVJ+I7+2RycoZOj3GSiK+NR5D4YpTsrHaTWXI4bjnUeW+gtriVjNgR2xzGnLJLnyRhNiEAEww4ZkGlhq711+2vibvvwCzZao6dIRuXlrS1n4Sli0scnDOJ8mRnxlANN0UgZqy8v7hS1XVSdjGJeNJAJHu2Z8yjH7BWS3vtWGq9AhB+yboi1OqzsLrZr/3wlFr6zQ8Rqr5py6WRslcxA90q1LMuRJNJaZIV0yTVP29EV+2Cpm03Fxn4Vd1dZzKakatdsOk8tVuOigmdXgS1MDzpSmhBu0+WmK2SJMMP2am+1tvkJXfZInNkQa7jQJipEsmbJkxjReLuScb2cqg0//B04T6q8b4VVAC+x3jcsKIIDESyanlokI2trq99/Y/gO9Sukm2JV1JqtBHLIhQ2NWDR28c5+zHnE5SlyQdaNq1ZYbyU6zaneNW5EyDJ6djg0PKy36HiEf1yhCBarZjy7XyPFSqggO+WKmXbLtfGRGN+Hr1Zg3/NOX1lr7oHErpLesP2SCCDWFBLJ54OKqtYvYzFpQe1/iCWkB8SfJwKqy0YVZKsNE7kMoZ2+fCJBy+ChVkAslXuyH+6OhUAsd5hbLjbMa+JBlEr476e62vlG7spKt+4ZP/7cNcQ6ImUSh0+3fDmdxFAF05eQnQsS9nBpp8hLrYD7Enzjy9w85ZIO7AsX4cJFLFev3roffDL8ebOSirm1JLTw/sqQK4Y018giiVRdvNQKMPS8G0khrzvhoRXu6opF6EAEzUf6wb26cTvV8EwVZM0PIhbKGXJJzpGV4jXIUy2/u26ePnYYy5UIuOzEcF21WO6ZZ/+mXEltLJYtlwNTyvBq+d5287oTGrwvJbEG2l2dH5+8ZDJ5xj0LfyMiEMtUGb1lzPCWXToll9W+KdTyGwKeLQjy0cn76LiMuxLM8RM3EHEzyg1TrtakIU65WrabPo1a3INwE+8YsP/oMlrOLAauNYN18691XzcAMhKUO85ez42XnomZmUotJHsdYfssVH7Lg2kNmPikuzRmKk4diAhDLk6q4bAo1iFi07mAhfROx5T5Drrfsq55SZw2F212Y+8ONjL2MuouX5oNMYlsKMbaWF5qF/uzE+iwClUTDjp7u6sV958cWondSTdLtoPDzFVqL8jOf3f4PDEjuaQYRrJbUkiQj7EEm8VBqAVHL6VbjZX5+ZViNJtK6GHizmJsrWWrvNKaSzoanKSqEKOMoJyg0hPhzpx+LnJTW1tZ0yKiBv+XFwAAAAAAAAAAAAAAAAAAAAAAAAAAAAAAAAAAAAAAAAAAAAAAAAAAAAAAAAAAAAAA4P+U/wEhDi3FlX/kMQAAAABJRU5ErkJggg==;fontStyle=1;imageBorder=default;strokeWidth=3;" vertex="1" parent="1">
          <mxGeometry x="165" y="348.75" width="129.43" height="71.81" as="geometry" />
        </mxCell>
        <mxCell id="pFz-RH5sDnhGAiZMFnmu-36" value="?" style="text;html=1;align=center;verticalAlign=middle;resizable=0;points=[];autosize=1;strokeColor=none;fillColor=none;fontSize=82;fontStyle=1" vertex="1" parent="1">
          <mxGeometry x="416" y="331.15" width="66" height="110" as="geometry" />
        </mxCell>
        <mxCell id="pFz-RH5sDnhGAiZMFnmu-38" value="Cloud Data Storage" style="shape=image;verticalLabelPosition=bottom;labelBackgroundColor=default;verticalAlign=top;aspect=fixed;imageAspect=0;image=data:image/png,iVBORw0KGgoAAAANSUhEUgAAALoAAACUCAMAAAATdsOFAAAAtFBMVEX////8//////0vjqX3/P0AfZz//f8AdZMAepwAeJv7/f8Ae5sujKd7qb79/vgAeZ4Ac5jf7fFyrcQAc5ROmrMAdp9do7zt9vXG3eUAg6HV5+suiqgAfZeaxdF4ssQAeZW32eF/tsKr0dmIuMiqytUAhZtjoLJBkq1sqLhjrr9HnK7M6OkAbZw5mbHj9fWLwMwog6uRxMlJkbRXrLVupL++3t3Y5fB4usEJkKC50uAAX5Ls9v0JRng7AAALhUlEQVR4nO1cC3ubuBJFQjISIgYFDAjMw4YAcRq73bvtbm7+//+6EuTRtAaTu8Txfh+njyS2DIdhNHNmJKJpM2bMmDFjxowZM2bMmDFjxowZM/5FgBpQX1DAFfZIvQQ/mdNISJogypNN43sS1VWyDYPP5nQanXGD5LoWlBHDtR3HwZRYXhF9MrOTgABqjweLZPbKyYSXpuntTqwzmzFc3WkQLT6bYD8A5IebbCXqart/eRGFhacT9uU+BJfr8hDktUtFxxuYmmkizVRTVLKPCWMHfrHcgwLb1M+PTUoYFcLGXgifJ8QFASy0oMIYlwGQ1v/lzdby3HNwvL085pIe1zOi84ERZoKZUV5gjH+UDnGNhonllk2T11sCn/771KuB2t6jokCDLGSACXcrsX0eYgJgmnIag1/967wIUrIuglPWg5Df2Fa0fH2lo/1pVpdnhyU2GniKAoSLZegQC2kqN4HwUNUS3iFE7TT/DJgwFORmnO3gdm3sNLiMbh0ncwkjlDmuswvR8vRnp8diiXaG+LEcZTeANoyGYUNWFNd+0zR/ejUmzLlVpj87ACzdLBk7WOM1tnTDqYs8CpCJEA/L1LJtUTx+KMujgJpue/vT455HJxhTseWvVgYBTzJKdp8gL0tXbMePXpp1dqtS13NMbAMq9wgVQwntY1AT/2RcfAWE6MeRl9HGZnp01jAJtPDrOtFGpxUocSQYAQgSQj1+zhgPtQJb7zgj7Mv8UDs4eIPOST2oZKCeACZAFSXfpzjUWES6U05xHOlygUWtc4b3LXamigxST7jb8dPmnwIkznqyk+291STONw6ocCY8W4LJ+RJTkLqpNpnsi6zVt7PER2iaWuA5Y/XLiAMCf9UAKUUnO2Ivgigs69U7VMBJbEgdgY+fqWHS6ILh1XRWl/GKCL/IwcfWq3kVY7pymbifUHnAO8ehdlzlQJZUkx31LXi1Ihn2So6ACReTcYdaVO7WdI29jwo0IMkMUSd7retJTxwTHpOaEZagjwg1QeHQWFY1H3RPobYvLOYWwfQOH6TY9sLO3qcBgJp0crApQ6k5dv6FO4LTYOpQgwqW3Y+tLeDbSh+ONSQM7h2yQRNTT1x83/ayTgEgFPCoLDa3vkKVFkmS8wCNISSz0o4Yh2lbHBGz6+EiWnV6gcpW/j12XSOjMuDJry6lrmG4LPaTMBqxvIQ8m00bZ3YkDqE5PCYIC98iK8IkZWxZXgvf84Rw5AU4JNMl/ZPsQ53UU7FWyB1WSJXR97ap4kPixcSmDtOvi4cwijjn3Uokj6Jwe2hqwyEsi72CD050uDxg46H/VO+FubPru4H34RL9JVhmO/om5Mj8vYsLl0v0mF8Lm2EhrgctD/kfa2+qqgnK8l8UQyPQ9maFRV3s1WD4uwYE2mLRXg/f1IIZeEC6gYV2sEU+UWKCcMNw/9QxISoyRvztqDXeYOszhg9DZo1svHkvxz7sK1r3mwFoB0pEEozJOzITw6AUBCdDZt0Z41uCJxDGdjpwKmmlONRG9fq7tbzQsimHfYaH2mFlhf8X0d+RCycfeLsh4l1nMmH41f1Pb5iBMp7hofO9ByV1hzoXMfvzXe0rCFHD4oHE/OjSSZo8EiUxBqgDHV+9s/OGGhr3fwQig0xHPRukLpSrj5RY7bDQItYQdZdMVT6WxB2Y8ZK6rfPR+U9yDzyCB3p1cD+h1TN3QBFJ6oThcLRSRXcypQ5Ql+Wek01FfTjCSOoCYzdVympYmStxGYS3LhHD1L+vxMD53oVQtwfSm5ymfiJsW1yX/ITLo6i8FswVScXigXz6bbK4DvfVaiib6jhFP3w3I6KWqlY5zlv+Tz+hu8KvhU2zKkJXg33pmlYTLeyZ2gaLqJe7Co6mtoykPQ3p9JmeliEP2tIUduUp2ofbVM4IjBnBtz9MDVwZA9Sjr1k6DXNNBTNW9Ga/jrqmlFVTxww7K8dxshtd91SB51n6jWo60RVZx/V12Uods5+6vNRiHU+lA9qqq+6NMR110LEPkytfF9iljk0IpZTIbyjJMmH5V7JEVd4jBw5Sj2pWT7i4JFVF0XeHW+qvlTDiUZhvkyLttjz617KufgjDiP901waoL1CC3XLKVozFpLcfd5nO6n9Veceqm5WqL/CEp16A+VM/HlyxHuqLZSRWf0/YWltodxmzekoJRV2LVsSxkmBsC+WKHKcOYKAT425Co0MIEmbvHo/aorP6RieMubskjB5H9Gr6qMPg3sXJlK07eaigsW3/qAiT1D0uZ1fiMTkvmXUl7w6Xvt3bCAKQe0ezKdR4Y9jp1CuRkO8I8Y4FLaVhDtI5Tf79oGfUYT+0wI/rul/8oYKIo1YPPcyqybcxA/i4W+H1BsBflUorv9J2dgLEw3QLtT2hhlMd0ZJQU135IhPiZyHwNH9BIYSz+4gN2FDbENtZH/gvc1GJXuxYdy9cJJMo2TRHE4EJUfi3Q8hbX5e2QDy5ySg5jGskvxdLLfdtm4qmDKOur8WDjnq9wyRrHtrQ3W4DXGrdv2dmzzU34Pm15L2rpa/L+/d0FJkJygav5OsPH7cGGZR+xqRIrLuGolfJtKciDC+kdMRe8cA7qovFz7YDTxtK+EPhEUZFsVcpCWjb58NYwllRY1d+4K4eVeE8XN+4UqRQQ+G/vKMunbxZO2v89Y/qW86PzMBA0pYKZ41d1vxAWpdNPdd4guve3ObBR64+tk9kQLDPi/T2WuGbdOwursuL+maxdYalPFzrflqUedgi3xbXvsUYow61bZm2lPd01KPrDukh522D4LybZcGLcpTn5Ym0rMBU3n51Z1q4Ukm6TF6S5TXJk0f8JnpPbvScji9cdlBhsqWu7rWaeFoQSenVVLUlsJSMMsMSoe+8pki2kSofzDZidvILaM9H+axNsp3Vv28D7TmQmEEQReELoogHb3fx/qocP2tXdUsd6baevO14vNL5LTcNiN6zolWOQUwwNW6/c7RUnBdv1yh/axQM16Zng+oIBFq08WTJ7OLdJjTV4yaDgS6oepTjmaH6MLn8ysvUoo6zwnsNlEWR9OUXqdTCeLCZcTZI6kxvl7Gl+Cru6b28BWyFHb/H8AtVpQ817s4HSX2Nn/qbCKIALSBoZDndu/q0ZQRfDHUssHvfJvJXSx+xuWlCEIR1RuQHLsRhsL+9J5Tt3izoHovVgSyliL263/qXMk2l/IoK4RIa+0X5tJquGl9ARcnnwIiismh0RlxRRFp6OXHdlEo8Ea7UVzLtV5ttyF+bA+iR59tN48WCkJVzU0TgolKSqSQ5+JFaa4EJkX8JEULXLfnnZp0R6SQ2k5rSSu/AEpoQXhL15x+kV1ReHN8wwojBpA5XzTssLKuW9+Jlp9twu/R8aKnL0KG+b/16H4XbJCmKq1SikMkp2X6P2vrj5ZGwS6KuXVVJoNLN4oUfQC1+evru5d6YvY2786KVX9whwrq++7mYHoB5RS4jrlv4CmnJDZYlnN3IyhS+CPfej1yIctR8qrZW8qSKKbUdqtpXkawverktNO6pjWQXgO1q3fYJg7BsYuxgrgU1ia3jjbv22d907b7j8ZoPBLIoboL2McaAh2UOYIAd6lTHuUFt32D7MvwFQP73emXl3ebGzs15nvTp9WUuiFpnuASY0nf9NXGskqO2UwOUePmlygedlkG8jF2Cq/M/vNaLIKkJc2+k+HrarHx0UFSmQmbXOrmgX6cBVW/XcmwmLL9Qe0l/HRBEeXLlW+vMcOIkGr1R9kwAQX5ruIZN11Zce1WzOZQKSbJpKq+OhYr7X77cbvejNyefExCFqR4TW4JhImO8Y9uUMkaIko2xnub7c/boxgN2v79hH26Vnf+oa8uK41hqRnUP0jJ8fBn3iSRPQ5YXz627u0iWHZ/NZyzgS1H3ZGHYBsfPpPTP8C+mPmPGjBkzZsyYMWPGjBkzZsyYMQX+B0km1Fs11SJuAAAAAElFTkSuQmCC;fontStyle=1" vertex="1" parent="1">
          <mxGeometry x="693" y="199.24" width="109.04" height="86.76" as="geometry" />
        </mxCell>
        <mxCell id="pFz-RH5sDnhGAiZMFnmu-39" value="" style="endArrow=classic;html=1;rounded=0;exitX=0.964;exitY=0.466;exitDx=0;exitDy=0;exitPerimeter=0;entryX=0;entryY=0.478;entryDx=0;entryDy=0;entryPerimeter=0;" edge="1" parent="1" source="pFz-RH5sDnhGAiZMFnmu-36" target="pFz-RH5sDnhGAiZMFnmu-26">
          <mxGeometry width="50" height="50" relative="1" as="geometry">
            <mxPoint x="814" y="655" as="sourcePoint" />
            <mxPoint x="864" y="605" as="targetPoint" />
          </mxGeometry>
        </mxCell>
        <mxCell id="pFz-RH5sDnhGAiZMFnmu-40" value="" style="endArrow=classic;html=1;rounded=0;exitX=0.982;exitY=0.492;exitDx=0;exitDy=0;exitPerimeter=0;entryX=0;entryY=0.5;entryDx=0;entryDy=0;edgeStyle=orthogonalEdgeStyle;" edge="1" parent="1" target="pFz-RH5sDnhGAiZMFnmu-38">
          <mxGeometry width="50" height="50" relative="1" as="geometry">
            <mxPoint x="515.01" y="382.034" as="sourcePoint" />
            <mxPoint x="648.97" y="223.5" as="targetPoint" />
          </mxGeometry>
        </mxCell>
        <mxCell id="pFz-RH5sDnhGAiZMFnmu-41" value="" style="endArrow=classic;html=1;rounded=0;exitX=0.986;exitY=0.466;exitDx=0;exitDy=0;exitPerimeter=0;entryX=-0.011;entryY=0.478;entryDx=0;entryDy=0;edgeStyle=orthogonalEdgeStyle;entryPerimeter=0;" edge="1" parent="1" source="pFz-RH5sDnhGAiZMFnmu-36" target="pFz-RH5sDnhGAiZMFnmu-20">
          <mxGeometry width="50" height="50" relative="1" as="geometry">
            <mxPoint x="516.725" y="378.41600000000005" as="sourcePoint" />
            <mxPoint x="682" y="500.5999999999999" as="targetPoint" />
            <Array as="points">
              <mxPoint x="605" y="382" />
              <mxPoint x="605" y="501" />
            </Array>
          </mxGeometry>
        </mxCell>
      </root>
    </mxGraphModel>
  </diagram>
</mxfile>
